{
  "accessors": [
    {
      "bufferView": 2,
      "componentType": 5126,
      "count": 1232,
      "max": [
        306.65560913085938,
        587.25885009765625,
        1027.6112060546875
      ],
      "min": [
        -543.16253662109375,
        -294.2572021484375,
        44.330329895019531
      ],
      "type": "VEC3"
    },
    {
      "bufferView": 2,
      "byteOffset": 14784,
      "componentType": 5126,
      "count": 1232,
      "max": [
        0.98084473609924316,
        0.98251283168792725,
        0.99994540214538574
      ],
      "min": [
        -0.98320871591567993,
        -0.9755663275718689,
        -0.99994552135467529
      ],
      "type": "VEC3"
    },
    {
      "bufferView": 3,
      "componentType": 5126,
      "count": 1232,
      "max": [
        0.99849051237106323,
        0.98448163270950317,
        0.42334979772567749,
        1
      ],
      "min": [
        -0.99860680103302002,
        -0.98571580648422241,
        -0.44073498249053955,
        1
      ],
      "type": "VEC4"
    },
    {
      "bufferView": 1,
      "componentType": 5126,
      "count": 1232,
      "max": [
        1,
        1
      ],
      "min": [
        0.5,
        0
      ],
      "type": "VEC2"
    },
    {
      "bufferView": 0,
      "componentType": 5125,
      "count": 3960,
      "max": [
        1231
      ],
      "min": [
        0
      ],
      "type": "SCALAR"
    },
    {
      "bufferView": 2,
      "byteOffset": 29568,
      "componentType": 5126,
      "count": 288,
      "max": [
        291.33441162109375,
        567.24456787109375,
        1063.3043212890625
      ],
      "min": [
        -528.06683349609375,
        -272.88632202148438,
        37.728633880615234
      ],
      "type": "VEC3"
    },
    {
      "bufferView": 2,
      "byteOffset": 33024,
      "componentType": 5126,
      "count": 288,
      "max": [
        0.95702832937240601,
        0.94852221012115479,
        0.99762535095214844
      ],
      "min": [
        -0.94964855909347534,
        -0.95330590009689331,
        -0.97878354787826538
      ],
      "type": "VEC3"
    },
    {
      "bufferView": 3,
      "byteOffset": 19712,
      "componentType": 5126,
      "count": 288,
      "max": [
        0.94951921701431274,
        0.95026367902755737,
        0.94971382617950439,
        1
      ],
      "min": [
        -0.94902050495147705,
        -0.96131908893585205,
        -0.99291092157363892,
        -1
      ],
      "type": "VEC4"
    },
    {
      "bufferView": 1,
      "byteOffset": 9856,
      "componentType": 5126,
      "count": 288,
      "max": [
        1,
        1
      ],
      "min": [
        0,
        0
      ],
      "type": "VEC2"
    },
    {
      "bufferView": 0,
      "byteOffset": 15840,
      "componentType": 5125,
      "count": 642,
      "max": [
        287
      ],
      "min": [
        0
      ],
      "type": "SCALAR"
    },
    {
      "bufferView": 2,
      "byteOffset": 36480,
      "componentType": 5126,
      "count": 586,
      "max": [
        295.85784912109375,
        567.24456787109375,
        1052.0362548828125
      ],
      "min": [
        -528.06683349609375,
        -283.9603271484375,
        37.728633880615234
      ],
      "type": "VEC3"
    },
    {
      "bufferView": 2,
      "byteOffset": 43512,
      "componentType": 5126,
      "count": 586,
      "max": [
        0.9490395188331604,
        0.94463497400283813,
        0.99990278482437134
      ],
      "min": [
        -0.9518318772315979,
        -0.95702928304672241,
        -0.99988096952438354
      ],
      "type": "VEC3"
    },
    {
      "bufferView": 3,
      "byteOffset": 24320,
      "componentType": 5126,
      "count": 586,
      "max": [
        0.94877791404724121,
        0.94617736339569092,
        0.99994808435440063,
        1
      ],
      "min": [
        -0.92140364646911621,
        -0.94620460271835327,
        -0.99931502342224121,
        -1
      ],
      "type": "VEC4"
    },
    {
      "bufferView": 1,
      "byteOffset": 12160,
      "componentType": 5126,
      "count": 586,
      "max": [
        1,
        1
      ],
      "min": [
        0,
        0
      ],
      "type": "VEC2"
    },
    {
      "bufferView": 0,
      "byteOffset": 18408,
      "componentType": 5125,
      "count": 1164,
      "max": [
        585
      ],
      "min": [
        0
      ],
      "type": "SCALAR"
    }
  ],
  "asset": {
    "extras": {
      "author": "dammne (https://sketchfab.com/dammne)",
      "license": "CC-BY-4.0 (http://creativecommons.org/licenses/by/4.0/)",
      "source": "https://sketchfab.com/3d-models/treasure-chest-cartoony-low-poly-80fc21d80ffa43418b986b6d67ecd130",
      "title": "Treasure Chest - Cartoony Low Poly"
    },
    "generator": "Sketchfab-5.11.0",
    "version": "2.0"
  },
  "bufferViews": [
    {
      "buffer": 0,
      "byteLength": 23064,
      "byteOffset": 0,
      "name": "floatBufferViews",
      "target": 34963
    },
    {
      "buffer": 0,
      "byteLength": 16848,
      "byteOffset": 23064,
      "byteStride": 8,
      "name": "floatBufferViews",
      "target": 34962
    },
    {
      "buffer": 0,
      "byteLength": 50544,
      "byteOffset": 39912,
      "byteStride": 12,
      "name": "floatBufferViews",
      "target": 34962
    },
    {
      "buffer": 0,
      "byteLength": 33696,
      "byteOffset": 90456,
      "byteStride": 16,
      "name": "floatBufferViews",
      "target": 34962
    }
  ],
  "buffers": [
    {
      "byteLength": 124152,
      "uri": "scene.bin"
    }
  ],
  "materials": [
    {
      "doubleSided": true,
      "emissiveFactor": [
        0,
        0,
        0
      ],
      "name": "green",
      "pbrMetallicRoughness": {
        "baseColorFactor": [
          0.679315,
          0.91000000000000003,
          0.55510000000000004,
          1
        ],
        "metallicFactor": 0,
        "roughnessFactor": 0.71283782890000003
      }
    },
    {
      "doubleSided": true,
      "emissiveFactor": [
        0,
        0,
        0
      ],
      "name": "material",
      "pbrMetallicRoughness": {
        "baseColorFactor": [
          0.5,
          0.105,
          0.216917,
          1
        ],
        "metallicFactor": 0,
        "roughnessFactor": 1
      }
    },
    {
      "doubleSided": true,
      "emissiveFactor": [
        0,
        0,
        0
      ],
      "name": "yellow",
      "pbrMetallicRoughness": {
        "baseColorFactor": [
          0.75175000000000003,
          0.96999999999999997,
          0.097000000000000003,
          1
        ],
        "metallicFactor": 0,
        "roughnessFactor": 1
      }
    }
  ],
  "meshes": [
    {
      "primitives": [
        {
          "attributes": {
            "NORMAL": 1,
            "POSITION": 0,
            "TANGENT": 2,
            "TEXCOORD_0": 3
          },
          "indices": 4,
          "material": 0,
          "mode": 4
        }
      ]
    },
    {
      "primitives": [
        {
          "attributes": {
            "NORMAL": 6,
            "POSITION": 5,
            "TANGENT": 7,
            "TEXCOORD_0": 8
          },
          "indices": 9,
          "material": 1,
          "mode": 4
        }
      ]
    },
    {
      "primitives": [
        {
          "attributes": {
            "NORMAL": 11,
            "POSITION": 10,
            "TANGENT": 12,
            "TEXCOORD_0": 13
          },
          "indices": 14,
          "material": 2,
          "mode": 4
        }
      ]
    }
  ],
  "nodes": [
    {
      "children": [
        1
      ],
      "name": "RootNode (gltf orientation matrix)",
      "rotation": [
        -0.70710678118654746,
        -0,
        -0,
        0.70710678118654757
      ]
    },
    {
      "children": [
        2
      ],
      "name": "RootNode (model correction matrix)"
    },
    {
      "children": [
        3,
        4,
        5
      ],
      "name": "chest.obj.cleaner.materialmerger.gles"
    },
    {
      "mesh": 0,
      "name": ""
    },
    {
      "mesh": 1,
      "name": ""
    },
    {
      "mesh": 2,
      "name": ""
    }
  ],
  "scene": 0,
  "scenes": [
    {
      "name": "OSG_Scene",
      "nodes": [
        0
      ]
    }
  ]
}

