<svg data-name="Option 2" 
    xmlns="http://www.w3.org/2000/svg" width="1024" height="1024" viewBox="0 0 1024 1024">
    <defs>
        <style>  
      .cls-1 {
        fill: #0cc;
      }

      .cls-1, .cls-2, .cls-3, .cls-4, .cls-5 {
        fill-rule: evenodd;
      }

      .cls-2 {
        fill: #f39;
      }

      .cls-3 {
        fill: #e92662;
      }

      .cls-4 {
        fill: #f63;
      }

      .cls-5 {
        fill: #fff;
      }
        </style>
    </defs>
    <path class="cls-1" d="M695.7 375.5l-72.1-41.5A20.4 20.4 0 0 0 613.5 331C606.1 331 601 336.9 601 347v83C601 440.1 606.1 446 613.5 446a20.4 20.4 0 0 0 10-3L695.7 401.5c12.4-7.1 12.4-18.8 0-25.9h0Zm-23.1 14.2-49.9 28.7-6.8 3.9 6.8-6.4V350.8l2.1 9 49.9 28.7 6.8 3.9-8.9-2.7h0Z"/>
    <path class="cls-2" d="M334 317h36c-1.3 111.2 87.7 208.4 209 208v35C443.4 561.3 335 451.9 334 317Z"/>
    <path class="cls-3" d="M580 143v36c-184.9 8.2-185.1 265.6-1 277 0.3 13-0.3 22 0 35-70.3-0.6-125.9-37.8-159-102-10.3-19.9-15.9-48-15-76C408 214.8 485.6 143.3 580 143Z"/>
    <path class="cls-4" d="M685 318H580V422c-100-3.5-142.6-120.6-70-184C577.5 179 686.2 226.6 685 318Z"/>
    <path class="cls-5" d="M284.1 667.6l-56.6 115.5-56.4-115.5H138.6l75.8 154.6a14.9 14.9 0 0 0 5.4 5.8 14.3 14.3 0 0 0 7.7 2.2 14.5 14.5 0 0 0 7.8-2.2 14.1 14.1 0 0 0 5.3-5.8l75.9-154.6H284.1Zm70-11.6H325v26.3h29.1V656Zm0 51.1H325v120.9h29.1V707.1ZM514.5 656H485.4V787.2q0 5.7-2.9 8.7t-8.8 3H421.2q-5.7 0-8.7-3t-3-8.9V747.8q0-5.7 3-8.7t8.8-3H473.6V707.1H421.2a46.7 46.7 0 0 0-13.2 2.1 38.6 38.6 0 0 0-23.4 19.6q-4.1 7.8-4.1 19v39.4a43.3 43.3 0 0 0 1 8.7 44.4 44.4 0 0 0 3 9.2 42.4 42.4 0 0 0 5.2 8.7 35.2 35.2 0 0 0 7.7 7.3 38.4 38.4 0 0 0 10.5 5.1 43.8 43.8 0 0 0 13.4 1.9H473.6a43.8 43.8 0 0 0 8.8-1 44.4 44.4 0 0 0 9.2-3 42.4 42.4 0 0 0 8.7-5.2 34.2 34.2 0 0 0 7.3-7.7 39.3 39.3 0 0 0 5-10.5 44.4 44.4 0 0 0 1.9-13.5V656Zm54.3 0H539.7v26.3h29.1V656Zm0 51.1H539.7v120.9h29.1V707.1Zm161 0H700.7v132.5q0 5.7-2.9 8.7t-8.7 3h-52.4V880.4H689.1a43.1 43.1 0 0 0 8.7-0.9 44.9 44.9 0 0 0 9.1-3 42.4 42.4 0 0 0 8.7-5.2 34.2 34.2 0 0 0 7.3-7.7 39.3 39.3 0 0 0 5-10.5 44.4 44.4 0 0 0 1.9-13.5v-132.5Zm-40.7 91.8H636.9q-5.9 0-8.9-3t-3-8.7V707.1H595.9v80.1q0 11.3 4 19.1a38.2 38.2 0 0 0 10.2 12.6 39.5 39.5 0 0 0 13.3 7 46.7 46.7 0 0 0 13.4 2.1H689.1V798.9Zm196.3-51.1a45.9 45.9 0 0 0-2.2-13.3 40.2 40.2 0 0 0-7-13.2 37.8 37.8 0 0 0-12.6-10.1q-7.8-4-19-4H792.2A46.7 46.7 0 0 0 779 709.2a38.6 38.6 0 0 0-23.4 19.6q-4.1 7.8-4.1 19v39.4q0 11.3 4.1 19.1A38.6 38.6 0 0 0 779 825.8a46.6 46.6 0 0 0 13.2 2.1h52.4a43.8 43.8 0 0 0 8.8-1 44.5 44.5 0 0 0 9.2-3 42.5 42.5 0 0 0 8.7-5.2 34.2 34.2 0 0 0 7.3-7.7 39.3 39.3 0 0 0 5-10.5 44.4 44.4 0 0 0 1.9-13.5V747.8Zm-29.1 39.4q0 5.7-2.9 8.7t-8.8 3H792.4q-5.8 0-8.8-3t-3-8.7V747.8q0-5.7 3-8.7t8.8-3h52.2q5.7 0 8.7 2.9t3 8.9v39.1Z"/>
</svg>
 