<svg id="Option_2" data-name="Option 2" xmlns="http://www.w3.org/2000/svg" width="1024" height="1024" viewBox="0 0 1024 1024">
  <defs>
    <style>
      .cls-1 {
        fill: #0cc;
      }

      .cls-1, .cls-2, .cls-3, .cls-4, .cls-5 {
        fill-rule: evenodd;
      }

      .cls-2 {
        fill: #f39;
      }

      .cls-3 {
        fill: #e92662;
      }

      .cls-4 {
        fill: #f63;
      }

      .cls-5 {
        fill: #fff;
      }
    </style>
  </defs>
  <g>
    <g id="Logo">
      <path id="Play" class="cls-1" d="M695.7,375.532l-72.148-41.488A20.375,20.375,0,0,0,613.531,331C606.12,331,601,336.88,601,347.012v82.976C601,440.121,606.12,446,613.531,446a20.385,20.385,0,0,0,10.02-3.044L695.7,401.468c12.4-7.132,12.4-18.8,0-25.936h0Zm-23.059,14.2-49.907,28.7-6.789,3.9,6.789-6.371V350.76l2.145,9.041,49.906,28.7,6.79,3.9-8.934-2.671h0Z"/>
      <path class="cls-2" d="M334,317h36c-1.276,111.177,87.714,208.424,209,208v35C443.441,561.341,335.017,451.931,334,317Z"/>
      <path class="cls-3" d="M580,143v36c-184.926,8.167-185.147,265.579-1,277,0.333,13-.333,22,0,35-70.283-.606-125.9-37.83-159-102-10.283-19.937-15.864-47.989-15-76C408.03,214.779,485.621,143.305,580,143Z"/>
      <path class="cls-4" d="M685,318H580V422c-99.97-3.46-142.592-120.621-70-184C577.53,179.041,686.2,226.614,685,318Z"/>
    </g>
    <path id="Vidiyo" class="cls-5" d="M284.116,667.623l-56.577,115.5-56.354-115.5H138.647l75.81,154.638a14.871,14.871,0,0,0,5.423,5.758,14.274,14.274,0,0,0,7.659,2.181,14.473,14.473,0,0,0,7.771-2.181,14.076,14.076,0,0,0,5.311-5.758l75.921-154.638H284.116Zm70-11.628H325.04v26.276h29.072V656Zm0,51.1H325.04v120.87h29.072V707.094ZM514.452,656H485.38V787.152q0,5.7-2.907,8.721t-8.833,3.019H421.2q-5.7,0-8.665-3.019t-2.963-8.945V747.794q0-5.7,3.019-8.666t8.833-2.963H473.64V707.094H421.2a46.665,46.665,0,0,0-13.194,2.124,38.554,38.554,0,0,0-23.424,19.623q-4.083,7.773-4.082,18.953v39.358a43.291,43.291,0,0,0,.951,8.665,44.424,44.424,0,0,0,2.963,9.169,42.38,42.38,0,0,0,5.2,8.665,35.249,35.249,0,0,0,7.715,7.324,38.386,38.386,0,0,0,10.455,5.088,43.828,43.828,0,0,0,13.417,1.9H473.64a43.8,43.8,0,0,0,8.777-.951,44.444,44.444,0,0,0,9.169-2.963,42.434,42.434,0,0,0,8.665-5.2,34.223,34.223,0,0,0,7.268-7.715,39.34,39.34,0,0,0,5.032-10.511,44.4,44.4,0,0,0,1.9-13.473V656Zm54.341,0H539.721v26.276h29.072V656Zm0,51.1H539.721v120.87h29.072V707.094Zm161.011,0H700.733v132.5q0,5.7-2.908,8.722t-8.721,3.019h-52.44V880.4H689.1a43.126,43.126,0,0,0,8.721-.95,44.944,44.944,0,0,0,9.113-2.963,42.428,42.428,0,0,0,8.666-5.2,34.224,34.224,0,0,0,7.268-7.715,39.345,39.345,0,0,0,5.031-10.51,44.422,44.422,0,0,0,1.9-13.474v-132.5Zm-40.7,91.8H636.887q-5.928,0-8.945-3.019t-3.019-8.721V707.094H595.852v80.058q0,11.295,4.025,19.064a38.233,38.233,0,0,0,10.175,12.635,39.456,39.456,0,0,0,13.25,6.988,46.673,46.673,0,0,0,13.362,2.125H689.1V798.892Zm196.344-51.1a45.864,45.864,0,0,0-2.18-13.306,40.2,40.2,0,0,0-6.989-13.25,37.83,37.83,0,0,0-12.635-10.119q-7.827-4.026-19.008-4.025H792.2A46.654,46.654,0,0,0,779,709.218a38.552,38.552,0,0,0-23.425,19.623q-4.083,7.773-4.081,18.953v39.358q0,11.295,4.081,19.064A38.552,38.552,0,0,0,779,825.839a46.587,46.587,0,0,0,13.194,2.125h52.44a43.814,43.814,0,0,0,8.778-.951,44.454,44.454,0,0,0,9.168-2.963,42.468,42.468,0,0,0,8.666-5.2,34.245,34.245,0,0,0,7.268-7.715,39.308,39.308,0,0,0,5.031-10.511,44.4,44.4,0,0,0,1.9-13.473V747.794Zm-29.071,39.358q0,5.7-2.908,8.721t-8.833,3.019H792.419q-5.814,0-8.833-3.019t-3.019-8.721V747.794q0-5.7,3.019-8.666t8.833-2.963h52.217q5.7,0,8.722,2.907t3.019,8.945v39.135Z"/>
  </g>
</svg>
